<svg xmlns="http://www.w3.org/2000/svg" viewBox="0 0 251.33 633.33">
  <defs>
    <style>.cls-1{fill:#97bd9b;}.cls-2{fill:#fae6ba;}.cls-3{fill:#0081b3;}.cls-10,.cls-11,.cls-12,.cls-13,.cls-3,.cls-4,.cls-5,.cls-6,.cls-8,.cls-9{stroke:#231f20;}.cls-3,.cls-4,.cls-5,.cls-6{stroke-width:2px;}.cls-4{fill:#fff;}.cls-13,.cls-5,.cls-7{fill:none;}.cls-6{fill:#f8bd7d;}.cls-10,.cls-11,.cls-12,.cls-8,.cls-9{fill:#9ea4ab;opacity:0.28;}.cls-8{stroke-width:0.44px;}.cls-9{stroke-width:0.25px;}.cls-10{stroke-width:0.37px;}.cls-11{stroke-width:0.48px;}.cls-12{stroke-width:0.59px;}.cls-14{font-size:36px;fill:#231f20;font-family:SnellRoundhand, Snell Roundhand;}</style>
  </defs>
  <title>Luzhai_Map</title>
  <g id="GARDEN"><path class="cls-1" d="M179,333s3.29,10.09-1.44,22.87-6.8,24.72,4.74,26,9.47,5.36,9.47,7.42-14.38,29.07-12.31,38.53c.65,3,11.9,6.79,23.43,5.76s22.86,1.65,15.86-21c0,0-.41-6-.21-9.89s.82-15.65.21-17.71-.82-11.95-.82-14.42-1-10.92-.62-13.18,1.44-19.16-8-23.48-14.62-8-18.33-8S172.19,324.57,179,333Z"/><path class="cls-1" d="M164.1,245.4s-20,1.93-28.35-5.5-9.08-38.12-6.61-43.08,13.35-20,18.58,3.72l8,20,9.91,24.22-1.37,1"/><rect class="cls-1" x="80.43" y="194.34" width="17.34" height="95.92"/><path class="cls-1" d="M83.41,407.79s-7.83-4.53-8.65,9.89,2.47,8.65-1.44,13-3.09,5.56.21,7,4.33,3.09,5.36,6.39,3.5,6.18,9.89,5.15,9.89-1,9.68-11.12,4.74-17.71-.62-23.89S83.41,407.79,83.41,407.79Z"/><path class="cls-1" d="M99.89,467.31S103,460.93,111,463.4s8.24,2.88,12.56,3.71,12.36,8.65,3.71,9.47,0,.21,0,.21h0l-27.17-.18"/><rect class="cls-1" x="206.13" y="433.83" width="12.3" height="19.82"/><path class="cls-1" d="M83.91,300.51v16.11H100.6v-16.7s-.88-2.63-5-2.93S90.94,293.78,83.91,300.51Z"/></g><g id="open-air"><rect class="cls-2" x="146.46" y="504.46" width="24.7" height="94.62"/><rect class="cls-2" x="38.61" y="427.49" width="33.11" height="17.36"/><rect class="cls-2" x="99.48" y="333.22" width="33.99" height="6.39"/><rect class="cls-2" x="130.22" y="305.41" width="3.71" height="13.6"/><rect class="cls-2" x="99.27" y="305.41" width="4.53" height="13.8"/><rect class="cls-2" x="99.48" y="337.96" width="3.91" height="19.36"/><rect class="cls-2" x="129.55" y="338.16" width="3.91" height="18.33"/><rect class="cls-2" x="108.34" y="356.29" width="15.24" height="6.59"/><rect class="cls-2" x="108.34" y="399.55" width="15.24" height="6.59"/><rect class="cls-2" x="84.44" y="382.45" width="18.54" height="6.18"/><rect class="cls-2" x="94.95" y="385.13" width="7.21" height="24.72"/><rect class="cls-2" x="139.85" y="414.79" width="31.93" height="2.68"/><rect class="cls-2" x="138.42" y="321.34" width="35.91" height="8.19"/><rect class="cls-2" x="97.53" y="249.33" width="30.97" height="6.15"/><rect class="cls-2" x="49.2" y="220.12" width="11.86" height="12.08"/><rect class="cls-2" x="30.31" y="10.28" width="7.03" height="161.66"/><rect class="cls-2" x="35.88" y="27.85" width="36.61" height="4.1"/><rect class="cls-2" x="67.51" y="30.19" width="9.37" height="142.63"/><rect class="cls-2" x="48.76" y="147.34" width="9.37" height="19.62"/><rect class="cls-2" x="100.02" y="171.94" width="8.79" height="16.4"/><rect class="cls-2" x="21.46" y="319.51" width="67.11" height="5.76"/><rect class="cls-2" x="22.03" y="324.42" width="6.48" height="63.22"/><rect class="cls-2" x="27.94" y="373.81" width="57.46" height="22.75"/><rect class="cls-2" x="80.35" y="324.85" width="5.47" height="51.55"/><rect class="cls-2" x="104.7" y="553.25" width="28.48" height="20.67"/><polyline class="cls-2" points="139.24 516.69 107.94 516.69 107.94 527.85 96.43 527.85 96.43 537.96 139.26 537.96 139.24 516.69"/></g><g id="white-_no_building" data-name="white- no building"><rect class="cls-3" x="150.44" y="526.96" width="17.2" height="14.78"/><rect class="cls-4" x="150.22" y="564.68" width="16.76" height="16.76"/><rect class="cls-4" x="59.94" y="396.46" width="14.28" height="30.96"/><rect class="cls-4" x="35.4" y="396.14" width="15.4" height="31.28"/><rect class="cls-4" x="28.5" y="325.72" width="22.14" height="48.12"/><rect class="cls-4" x="58.82" y="325.72" width="22.14" height="48.12"/><rect class="cls-4" x="102.36" y="339.4" width="10.51" height="17.1"/><rect class="cls-4" x="97.97" y="273.51" width="10.51" height="17.1"/><rect class="cls-4" x="121.31" y="339.81" width="9.47" height="16.68"/><rect class="cls-4" x="102.77" y="384.3" width="9.89" height="15.65"/><rect class="cls-4" x="120.49" y="384.51" width="11.33" height="14.62"/><rect class="cls-4" x="104.01" y="426.74" width="7.21" height="23.28"/><rect class="cls-4" x="120.28" y="427.15" width="7.42" height="22.87"/><rect class="cls-4" x="139.85" y="385.95" width="12.77" height="28.84"/><rect class="cls-4" x="160.45" y="386.16" width="11.74" height="28.22"/><rect class="cls-4" x="138.61" y="329.51" width="11.74" height="22.04"/><rect class="cls-4" x="162.71" y="329.51" width="11.53" height="21.83"/><rect class="cls-4" x="118.61" y="272.84" width="9.45" height="17.13"/><polyline class="cls-4" points="68.23 166.96 68.23 186.97 79.61 186.97 79.61 193.54 29.87 193.98"/><polyline class="cls-4" points="30.02 193.54 30.02 187.12 37.75 187.12 37.63 167.26"/><rect class="cls-4" x="36.46" y="32.24" width="31.04" height="25.48"/><rect class="cls-4" x="37.93" y="126.84" width="29.87" height="20.5"/><rect class="cls-4" x="37.05" y="85.25" width="30.75" height="17.87"/><line class="cls-5" x1="100.6" y1="189.22" x2="102.95" y2="186.59"/><line class="cls-5" x1="107.63" y1="188.64" x2="105.29" y2="186.88"/><rect class="cls-4" x="105.01" y="558.46" width="23.58" height="10.41"/><rect class="cls-4" x="111.15" y="524.12" width="28.33" height="11.64"/></g><g id="buildings"><polyline class="cls-6" points="158.59 256.58 162.98 265.95 177.04 265.95 172.65 256.29"/><polyline class="cls-6" points="37.78 320.06 37.78 294.14 71.39 294.14 71.39 320.06"/><polygon class="cls-6" points="111.27 399.34 111.27 404.49 123.22 404.49 123.22 399.34 131.67 399.34 131.67 426.94 100.15 426.94 100.15 399.34 111.27 399.34"/><rect class="cls-6" x="170.73" y="575.48" width="7.94" height="8.6"/><rect class="cls-6" x="71.8" y="464.9" width="8.63" height="8.9"/><rect class="cls-6" x="71.8" y="456" width="8.63" height="8.9"/><rect class="cls-6" x="71.8" y="446.82" width="8.63" height="8.9"/><rect class="cls-6" x="102.01" y="502.13" width="5.93" height="26.71"/><rect class="cls-6" x="107.95" y="502.13" width="7.83" height="14.57"/><rect class="cls-6" x="116.85" y="502.13" width="7.82" height="14.57"/><rect class="cls-6" x="124.94" y="502.13" width="7.82" height="14.57"/><rect class="cls-6" x="131.42" y="502.13" width="7.83" height="14.57"/><rect class="cls-6" x="147.6" y="504.55" width="7.82" height="14.57"/><rect class="cls-6" x="163.25" y="504.28" width="7.82" height="14.57"/><rect class="cls-6" x="141.83" y="503.8" width="5.07" height="95.28"/><rect class="cls-6" x="171.17" y="504.24" width="7.72" height="70.8"/><rect class="cls-6" x="141.61" y="599.08" width="28.67" height="1.98"/><rect class="cls-6" x="147.35" y="583.86" width="8.38" height="15"/><rect class="cls-6" x="160.8" y="583.86" width="9.48" height="15"/><rect class="cls-6" x="42.08" y="429.37" width="7.74" height="11.75"/><rect class="cls-6" x="61.04" y="429.37" width="7.75" height="11.75"/><rect class="cls-6" x="27.86" y="378.82" width="7.06" height="12.35"/><rect class="cls-6" x="34.92" y="378.82" width="7.06" height="12.35"/><rect class="cls-6" x="67.32" y="378.82" width="7.06" height="12.35"/><rect class="cls-6" x="74.54" y="378.82" width="7.06" height="12.35"/><rect class="cls-6" x="13.42" y="374.65" width="9.95" height="7.06"/><rect class="cls-6" x="13.42" y="367.43" width="9.95" height="7.06"/><rect class="cls-6" x="13.42" y="360.21" width="9.95" height="7.06"/><rect class="cls-6" x="11.02" y="355.56" width="12.51" height="8.02"/><rect class="cls-6" x="11.02" y="347.54" width="12.51" height="8.02"/><rect class="cls-6" x="11.02" y="339.52" width="12.51" height="8.02"/><rect class="cls-6" x="11.02" y="331.5" width="12.51" height="8.02"/><rect class="cls-6" x="11.02" y="323.47" width="12.51" height="8.02"/><rect class="cls-6" x="11.02" y="315.45" width="12.51" height="8.02"/><rect class="cls-6" x="85.61" y="374.65" width="14.28" height="7.86"/><rect class="cls-6" x="85.61" y="363.42" width="14.12" height="11.23"/><rect class="cls-6" x="85.61" y="355.4" width="13.63" height="8.02"/><rect class="cls-6" x="85.61" y="347.38" width="13.63" height="8.02"/><rect class="cls-6" x="85.61" y="339.36" width="13.63" height="8.02"/><rect class="cls-6" x="85.61" y="331.34" width="13.63" height="8.02"/><rect class="cls-6" x="85.61" y="323.31" width="13.63" height="8.02"/><rect class="cls-6" x="85.61" y="315.29" width="13.63" height="8.02"/><rect class="cls-6" x="85.48" y="387.05" width="10.34" height="10.52"/><rect class="cls-6" x="85.48" y="397.57" width="10.34" height="10.52"/><rect class="cls-6" x="16.56" y="386.15" width="7.98" height="8.52"/><rect class="cls-6" x="16.74" y="394.67" width="7.8" height="8.71"/><rect class="cls-6" x="16.74" y="403.38" width="7.98" height="6.17"/><rect class="cls-6" x="99.68" y="319.42" width="10.3" height="14.01"/><rect class="cls-6" x="122.55" y="319.42" width="10.3" height="14.01"/><rect class="cls-6" x="109.78" y="319.21" width="12.57" height="14.83"/><polyline class="cls-6" points="99.06 305.62 99.06 296.56 134.08 296.56 134.08 305.62"/><polyline class="cls-6" points="122.34 356.7 130.79 356.7 130.79 384.31 99.27 384.31 99.27 356.7 110.39 356.7"/><line class="cls-6" x1="110.39" y1="361.85" x2="122.34" y2="361.85"/><rect class="cls-6" x="99.68" y="426.94" width="4.33" height="22.86"/><rect class="cls-6" x="127.49" y="426.94" width="4.74" height="23.07"/><rect class="cls-6" x="140.06" y="418.09" width="32.13" height="21.83"/><polyline class="cls-6" points="163.74 351.76 174.87 351.76 174.87 386.16 137.17 386.16 137.58 351.76 149.32 351.76"/><line class="cls-6" x1="149.33" y1="357.12" x2="163.74" y2="357.12"/><rect class="cls-6" x="138.2" y="296.56" width="11.54" height="24.72"/><rect class="cls-6" x="163.13" y="296.56" width="11.33" height="25.13"/><polyline class="cls-6" points="149.69 321.35 149.69 296.5 163.02 296.5 163.02 321.35"/><line class="cls-6" x1="119.49" y1="255.04" x2="107.85" y2="255.04"/><polyline class="cls-6" points="107.85 250.87 97.75 250.87 97.75 273.06 128.5 273.06 128.5 251.09 119.49 251.09"/><polyline class="cls-6" points="48.98 294.36 48.98 267.35 61.28 267.35 61.28 294.36"/><rect class="cls-6" x="48.98" y="235.06" width="12.3" height="32.07"/><rect class="cls-6" x="61.28" y="194.2" width="9" height="19.55"/><rect class="cls-6" x="39.76" y="194.2" width="9.01" height="19.55"/><rect class="cls-6" x="39.54" y="219.24" width="9.66" height="12.96"/><rect class="cls-6" x="61.06" y="219.24" width="9.44" height="12.96"/><rect class="cls-6" x="70.73" y="193.98" width="9.67" height="73.36"/><rect class="cls-6" x="29.87" y="193.98" width="9.67" height="73.36"/><rect class="cls-6" x="23.72" y="295.46" width="13.84" height="27.89"/><rect class="cls-6" x="71.39" y="296.78" width="14.28" height="26.36"/><rect class="cls-4" x="26.58" y="315.01" width="7.91" height="4.61"/><rect class="cls-4" x="74.46" y="315.01" width="7.91" height="4.61"/><polyline class="cls-6" points="119.93 198.16 130.03 198.16 130.03 224.29 95.77 224.29 95.55 198.59 106.97 198.59"/><line class="cls-6" x1="106.97" y1="203.87" x2="119.93" y2="203.87"/><line class="cls-6" x1="46.06" y1="108.39" x2="59.01" y2="108.39"/><line class="cls-6" x1="106.97" y1="255.92" x2="119.93" y2="255.92"/><rect class="cls-6" x="28.32" y="267.13" width="13.87" height="23.39"/><rect class="cls-6" x="67.2" y="267.29" width="12.91" height="22.26"/><polygon class="cls-6" points="85.58 31.67 73.04 31.67 73.04 148.62 74.79 148.62 74.79 172.83 71.44 172.83 71.44 186.54 85.29 186.54 85.58 148.07 86.98 148.07 86.98 75.37 85.58 31.67"/><polygon class="cls-6" points="32.95 172.82 18.01 172.82 19.48 10.28 31.78 10.57 32.36 148.22 33.24 148.22 32.95 172.82"/><rect class="cls-6" x="35.88" y="10.57" width="9.67" height="17.28"/><rect class="cls-6" x="57.84" y="10.57" width="9.37" height="16.99"/><polyline class="cls-6" points="45.84 27.85 45.84 10.28 57.55 10.28 57.55 27.85"/><rect class="cls-6" x="37.63" y="103.12" width="30.17" height="23.14"/><rect class="cls-6" x="90.06" y="97.26" width="25.19" height="21.09"/><rect class="cls-6" x="89.47" y="137.97" width="25.19" height="21.97"/><rect class="cls-6" x="90.35" y="171.94" width="9.66" height="16.99"/><rect class="cls-6" x="107.92" y="171.94" width="9.66" height="16.99"/><rect class="cls-6" x="37.93" y="147.63" width="10.54" height="19.91"/><rect class="cls-6" x="57.84" y="147.63" width="9.96" height="19.62"/><rect class="cls-6" x="29.23" y="427.38" width="9.36" height="70.13"/><rect class="cls-6" x="201.94" y="499.14" width="15.68" height="9.17"/><rect class="cls-6" x="201.78" y="508.31" width="16.18" height="7.51"/><rect class="cls-6" x="217.95" y="498.8" width="21.85" height="16.85"/><rect class="cls-6" x="202.61" y="516.15" width="10.67" height="62.55"/><rect class="cls-6" x="216.12" y="515.82" width="7.5" height="16.51"/><polygon class="cls-6" points="110.54 33.14 167.15 11.19 165.88 8.01 177.65 3.24 200.87 64.95 125.17 91.35 115.63 66.54 147.44 55.41 144.57 47.77 119.13 56.68 110.54 33.14"/><polygon class="cls-6" points="134.39 104.71 145.21 100.89 169.7 168.01 154.75 173.73 135.03 118.7 134.39 104.71"/><polyline class="cls-6" points="176.7 226.22 182.74 240.21 238.41 220.17 238.41 198.54 213.28 206.81"/><polygon class="cls-6" points="185.28 248.16 222.18 235.44 222.18 246.57 239.04 246.89 239.04 272.98 193.88 272.98 185.28 248.16"/><rect class="cls-6" x="184.97" y="314.96" width="12.09" height="6.36"/><rect class="cls-6" x="184.97" y="307.96" width="12.09" height="6.36"/><rect class="cls-6" x="184.97" y="300.65" width="12.09" height="6.36"/><rect class="cls-6" x="175.07" y="434" width="30.44" height="20.75"/><rect class="cls-6" x="179.45" y="383.96" width="11.99" height="10.15"/><rect class="cls-6" x="179.45" y="394.11" width="11.99" height="10.15"/><rect class="cls-6" x="179.45" y="404.25" width="11.99" height="10.15"/><rect class="cls-6" x="147.17" y="549.75" width="23.98" height="11.99"/><rect class="cls-6" x="117.88" y="140.31" width="15.23" height="17.57"/><rect class="cls-6" x="117.88" y="158.18" width="16.7" height="7.32"/><rect class="cls-6" x="121.1" y="165.21" width="17.28" height="8.49"/><rect class="cls-6" x="154.78" y="246.33" width="16.4" height="10.25"/><rect class="cls-6" x="166.5" y="276.2" width="14.64" height="7.32"/><polygon class="cls-6" points="158.88 180.73 198.96 166.42 214.55 210.95 174.79 226.53 158.88 180.73"/><rect class="cls-6" x="78.37" y="558.15" width="18.83" height="8.88"/><rect class="cls-6" x="78.37" y="567.03" width="18.83" height="8.88"/><rect class="cls-6" x="78.37" y="575.91" width="18.83" height="8.88"/><rect class="cls-6" x="78.37" y="584.79" width="18.83" height="8.88"/><rect class="cls-6" x="78.37" y="593.68" width="18.83" height="8.88"/><rect class="cls-6" x="68.57" y="557.85" width="9.8" height="14.09"/><rect class="cls-6" x="58.62" y="557.85" width="9.8" height="14.09"/><rect class="cls-6" x="61.98" y="572.24" width="16.38" height="7.5"/><rect class="cls-6" x="61.98" y="579.89" width="16.38" height="7.5"/><rect class="cls-6" x="30.9" y="540.54" width="15.77" height="8.88"/><rect class="cls-6" x="31.21" y="549.42" width="14.24" height="7.96"/><rect class="cls-6" x="31.21" y="557.38" width="9.34" height="14.09"/><rect class="cls-6" x="40.55" y="557.38" width="9.34" height="14.09"/><rect class="cls-6" x="50.35" y="558.15" width="8.12" height="13.78"/><rect class="cls-6" x="31.67" y="587.09" width="10.11" height="18.68"/><rect class="cls-6" x="41.77" y="587.09" width="10.11" height="18.68"/><rect class="cls-6" x="57.85" y="587.09" width="10.11" height="18.68"/><rect class="cls-6" x="67.96" y="587.09" width="10.11" height="18.68"/><rect class="cls-6" x="104.7" y="537.94" width="9.49" height="15.31"/><rect class="cls-6" x="114.35" y="537.94" width="9.49" height="15.31"/><rect class="cls-6" x="124" y="537.94" width="9.49" height="15.31"/><rect class="cls-6" x="104.7" y="574.07" width="9.49" height="15.31"/><rect class="cls-6" x="114.35" y="574.07" width="9.49" height="15.31"/><rect class="cls-6" x="124" y="574.07" width="9.49" height="15.31"/><rect class="cls-6" x="104.7" y="589.23" width="9.49" height="15.31"/><rect class="cls-6" x="114.35" y="589.23" width="9.49" height="15.31"/><rect class="cls-6" x="124" y="589.23" width="9.49" height="15.31"/><rect class="cls-6" x="133.49" y="537.79" width="8.27" height="65.08"/><rect class="cls-6" x="160.79" y="614.18" width="7.47" height="9"/><rect class="cls-6" x="153.1" y="615.05" width="7.47" height="9.01"/><rect class="cls-6" x="145.41" y="615.93" width="7.47" height="9.01"/><rect class="cls-6" x="137.72" y="616.81" width="7.47" height="9.01"/><rect class="cls-6" x="130.04" y="616.81" width="7.47" height="9.01"/><rect class="cls-6" x="122.35" y="616.81" width="7.47" height="9.01"/><rect class="cls-6" x="114.66" y="617.25" width="7.47" height="9.01"/><rect class="cls-6" x="106.97" y="617.03" width="7.47" height="9"/><rect class="cls-6" x="99.72" y="616.81" width="7.47" height="9.01"/><rect class="cls-6" x="91.82" y="617.03" width="7.47" height="9"/><rect class="cls-6" x="209.33" y="613.52" width="7.47" height="9.01"/><rect class="cls-6" x="216.8" y="613.3" width="7.47" height="9.01"/><rect class="cls-6" x="224.49" y="613.3" width="7.47" height="9.01"/><rect class="cls-6" x="231.73" y="612.86" width="7.47" height="9.01"/><polygon class="cls-6" points="217.17 597.93 217.17 579.18 202.93 579.18 202.7 583.23 210.34 598.16 217.17 597.93"/><rect class="cls-6" x="217.17" y="579.18" width="8.45" height="18.87"/></g><g id="WALLS"><line class="cls-5" x1="178.89" y1="504.02" x2="178.89" y2="498.51"/><line class="cls-5" x1="178.89" y1="498.51" x2="38.83" y2="498.51"/><line class="cls-5" x1="38.83" y1="498.51" x2="38.83" y2="440.94"/><line class="cls-5" x1="171.17" y1="498.29" x2="171.17" y2="492.11"/><line class="cls-5" x1="170.95" y1="483.51" x2="170.95" y2="476.23"/><line class="cls-5" x1="218.59" y1="476.67" x2="71.47" y2="476.67"/><line class="cls-5" x1="71.91" y1="476.45" x2="71.91" y2="474.02"/><line class="cls-5" x1="38.88" y1="440.85" x2="51.16" y2="440.85"/><line class="cls-5" x1="58.91" y1="440.85" x2="71.46" y2="440.85"/><line class="cls-5" x1="71.46" y1="440.85" x2="71.46" y2="446.46"/><line class="cls-5" x1="50.63" y1="441.11" x2="53.49" y2="438.49"/><line class="cls-5" x1="58.91" y1="441.11" x2="56.54" y2="438.2"/><line class="cls-5" x1="42.14" y1="385.55" x2="52.08" y2="385.55"/><line class="cls-5" x1="56.73" y1="385.39" x2="67" y2="385.39"/><line class="cls-5" x1="51.76" y1="385.55" x2="52.56" y2="387.96"/><line class="cls-5" x1="56.73" y1="385.39" x2="56.25" y2="388.01"/><line class="cls-5" x1="133.88" y1="305.62" x2="133.88" y2="356.7"/><line class="cls-5" x1="133.26" y1="356.7" x2="132.23" y2="356.7"/><line class="cls-6" x1="132.02" y1="356.7" x2="132.02" y2="449.81"/><line class="cls-5" x1="111.63" y1="449.6" x2="114.31" y2="447.75"/><line class="cls-5" x1="119.87" y1="449.6" x2="117.81" y2="447.95"/><line class="cls-5" x1="100.1" y1="450.22" x2="111.22" y2="450.22"/><line class="cls-5" x1="120.28" y1="450.22" x2="132.02" y2="450.22"/><line class="cls-5" x1="99.89" y1="476.59" x2="99.89" y2="427.36"/><line class="cls-5" x1="207.41" y1="464.84" x2="160.45" y2="464.84"/><line class="cls-5" x1="151.8" y1="464.64" x2="139.85" y2="464.64"/><line class="cls-5" x1="139.85" y1="464.43" x2="139.85" y2="386.16"/><line class="cls-5" x1="151.8" y1="439.92" x2="151.8" y2="464.23"/><line class="cls-5" x1="160.86" y1="439.92" x2="160.86" y2="464.64"/><line class="cls-5" x1="152.21" y1="464.64" x2="154.47" y2="462.17"/><line class="cls-5" x1="160.45" y1="464.84" x2="158.18" y2="462.58"/><line class="cls-5" x1="171.78" y1="464.64" x2="171.78" y2="414.59"/><line class="cls-5" x1="138.52" y1="329.31" x2="138.52" y2="321.48"/><line class="cls-5" x1="174.46" y1="329.31" x2="174.46" y2="321.48"/><line class="cls-5" x1="99.28" y1="315.01" x2="99.28" y2="305.49"/><line class="cls-5" x1="184.07" y1="289.38" x2="181.21" y2="290.63"/><line class="cls-6" x1="108.44" y1="290.63" x2="80.39" y2="290.63"/><line class="cls-6" x1="112.09" y1="288.14" x2="108.44" y2="290.63"/><line class="cls-6" x1="118.47" y1="290.63" x2="114.64" y2="287.96"/><line class="cls-6" x1="181.21" y1="290.63" x2="118.47" y2="290.63"/><line class="cls-5" x1="97.53" y1="250.43" x2="97.53" y2="224.29"/><line class="cls-5" x1="128.28" y1="250.65" x2="128.28" y2="224.07"/><line class="cls-5" x1="61.5" y1="219.46" x2="70.73" y2="219.46"/><line class="cls-5" x1="48.98" y1="220.12" x2="53.16" y2="220.12"/><line class="cls-5" x1="50.96" y1="221" x2="55.13" y2="221"/><line class="cls-5" x1="144.24" y1="194.42" x2="80.61" y2="194.42"/><line class="cls-5" x1="80.39" y1="194.42" x2="80.39" y2="290.41"/><line class="cls-5" x1="39.54" y1="213.75" x2="39.54" y2="260.54"/><line class="cls-5" x1="48.32" y1="299.63" x2="61.28" y2="299.63"/><line class="cls-5" x1="47.89" y1="109.27" x2="57.55" y2="109.27"/><line class="cls-5" x1="202.28" y1="578.86" x2="202.28" y2="498.97"/><line class="cls-5" x1="202.28" y1="498.97" x2="217.45" y2="498.97"/><line class="cls-5" x1="220.03" y1="498.33" x2="220.03" y2="483.81"/><line class="cls-5" x1="220.03" y1="483.81" x2="231.56" y2="483.81"/><line class="cls-5" x1="231.56" y1="483.81" x2="231.56" y2="484.96"/><line class="cls-5" x1="231.56" y1="484.96" x2="239.4" y2="484.96"/><line class="cls-5" x1="155.24" y1="504.56" x2="163.31" y2="504.56"/><line class="cls-5" x1="91.82" y1="171.65" x2="91.82" y2="159.94"/><line class="cls-5" x1="114.66" y1="171.65" x2="114.66" y2="159.94"/><line class="cls-5" x1="113.78" y1="137.68" x2="113.78" y2="118.64"/><line class="cls-5" x1="90.06" y1="137.68" x2="90.06" y2="118.35"/><line class="cls-5" x1="104.56" y1="553.33" x2="104.56" y2="573.98"/><polyline class="cls-5" points="168.69 613.96 169.13 620.33 208.23 620.33 209.11 613.52 239.64 612.64"/><line class="cls-5" x1="178.74" y1="584.27" x2="170.64" y2="600.94"/><line class="cls-5" x1="177.12" y1="584.27" x2="170.64" y2="597.47"/><line class="cls-5" x1="202.12" y1="586.7" x2="208.83" y2="600.59"/><line class="cls-5" x1="210.69" y1="600.36" x2="202.24" y2="583.35"/><line class="cls-5" x1="202.12" y1="586.82" x2="202.12" y2="578.72"/><line class="cls-5" x1="208.83" y1="600.48" x2="225.5" y2="600.13"/><line class="cls-5" x1="225.39" y1="600.13" x2="225.5" y2="598.4"/><rect id="_Slice_" data-name="&lt;Slice&gt;" class="cls-7" x="4.83" y="5.3" width="234.59" height="615.03"/></g><g id="water"><polygon class="cls-3" points="231.84 477.32 232.15 433.45 220.1 433.76 219.17 477.01 231.84 477.32"/><polygon class="cls-3" points="220.1 327.16 219.48 323.76 195.69 295.65 186.42 296.88 203.72 320.37 209.28 328.71 220.1 327.16"/><polygon class="cls-3" points="193.84 289.47 184.57 290.4 143.78 192.14 154.91 189.36 193.84 289.47"/><polygon class="cls-3" points="153.67 185.35 142.24 188.44 89.4 31.79 97.75 31.79 153.67 185.35"/><path class="cls-3" d="M96.51,27.46,74.27-31.86S62.83-59.36,52.33-64.61s-9.27.31-9.27.31S57.58-49.47,61.29-40.51s26,68.59,26,68.59Z"/><line class="cls-5" x1="48.76" y1="167.26" x2="51.4" y2="164.62"/><line class="cls-5" x1="57.55" y1="167.55" x2="54.91" y2="165.21"/><polygon class="cls-3" points="232.28 429.74 235.37 363.93 223.63 333.96 212.82 336.44 223.94 363 219.92 429.74 232.28 429.74"/></g><g id="COLUMNS"><circle class="cls-8" cx="113.29" cy="360.15" r="1.12"/><circle class="cls-8" cx="42.56" cy="294.91" r="1.12"/><circle class="cls-8" cx="40.59" cy="299.31" r="1.12"/><circle class="cls-8" cx="66.39" cy="294.91" r="1.12"/><circle class="cls-8" cx="68.36" cy="299.31" r="1.12"/><circle class="cls-8" cx="58.65" cy="383.22" r="1.12"/><circle class="cls-8" cx="50.05" cy="383.22" r="1.12"/><circle class="cls-9" cx="27.26" cy="331" r="0.65"/><circle class="cls-9" cx="74.48" cy="216.57" r="0.65"/><circle class="cls-9" cx="74.48" cy="221.4" r="0.65"/><circle class="cls-9" cx="74.48" cy="226.23" r="0.65"/><circle class="cls-9" cx="74.48" cy="231.06" r="0.65"/><circle class="cls-9" cx="74.48" cy="235.89" r="0.65"/><circle class="cls-9" cx="74.48" cy="240.73" r="0.65"/><circle class="cls-9" cx="76.24" cy="32.5" r="0.65"/><circle class="cls-9" cx="74.48" cy="202.29" r="0.65"/><circle class="cls-9" cx="74.48" cy="207.12" r="0.65"/><circle class="cls-9" cx="74.48" cy="211.95" r="0.65"/><circle class="cls-9" cx="74.48" cy="245.56" r="0.65"/><circle class="cls-9" cx="74.48" cy="250.39" r="0.65"/><circle class="cls-9" cx="74.48" cy="255.22" r="0.65"/><circle class="cls-9" cx="74.48" cy="260.06" r="0.65"/><circle class="cls-9" cx="77.56" cy="216.57" r="0.65"/><circle class="cls-9" cx="77.56" cy="221.4" r="0.65"/><circle class="cls-9" cx="77.56" cy="226.23" r="0.65"/><circle class="cls-9" cx="77.56" cy="231.06" r="0.65"/><circle class="cls-9" cx="77.56" cy="235.89" r="0.65"/><circle class="cls-9" cx="77.56" cy="240.73" r="0.65"/><circle class="cls-9" cx="81.07" cy="32.5" r="0.65"/><circle class="cls-9" cx="22.64" cy="11.41" r="0.65"/><circle class="cls-9" cx="27.48" cy="11.41" r="0.65"/><circle class="cls-9" cx="22.35" cy="19.32" r="0.65"/><circle class="cls-9" cx="27.18" cy="19.32" r="0.65"/><circle class="cls-9" cx="22.35" cy="28.4" r="0.65"/><circle class="cls-9" cx="27.18" cy="28.4" r="0.65"/><circle class="cls-9" cx="22.94" cy="32.2" r="0.65"/><circle class="cls-9" cx="27.77" cy="32.2" r="0.65"/><circle class="cls-9" cx="22.35" cy="39.82" r="0.65"/><circle class="cls-9" cx="27.18" cy="39.82" r="0.65"/><circle class="cls-9" cx="22.64" cy="49.78" r="0.65"/><circle class="cls-9" cx="27.48" cy="49.78" r="0.65"/><circle class="cls-9" cx="22.94" cy="58.56" r="0.65"/><circle class="cls-9" cx="27.77" cy="58.56" r="0.65"/><circle class="cls-9" cx="22.94" cy="60.9" r="0.65"/><circle class="cls-9" cx="27.77" cy="60.9" r="0.65"/><circle class="cls-9" cx="23.52" cy="67.05" r="0.65"/><circle class="cls-9" cx="28.35" cy="67.05" r="0.65"/><circle class="cls-9" cx="23.52" cy="74.67" r="0.65"/><circle class="cls-9" cx="28.35" cy="74.67" r="0.65"/><circle class="cls-9" cx="23.52" cy="77.6" r="0.65"/><circle class="cls-9" cx="28.35" cy="77.6" r="0.65"/><circle class="cls-9" cx="23.52" cy="86.97" r="0.65"/><circle class="cls-9" cx="28.35" cy="86.97" r="0.65"/><circle class="cls-9" cx="23.52" cy="95.76" r="0.65"/><circle class="cls-9" cx="28.35" cy="95.76" r="0.65"/><circle class="cls-9" cx="23.52" cy="106.01" r="0.65"/><circle class="cls-9" cx="28.35" cy="106.01" r="0.65"/><circle class="cls-9" cx="23.52" cy="114.79" r="0.65"/><circle class="cls-9" cx="28.35" cy="114.79" r="0.65"/><circle class="cls-9" cx="23.52" cy="122.99" r="0.65"/><circle class="cls-9" cx="28.35" cy="122.99" r="0.65"/><circle class="cls-9" cx="23.52" cy="130.9" r="0.65"/><circle class="cls-9" cx="28.35" cy="130.9" r="0.65"/><circle class="cls-9" cx="23.52" cy="140.86" r="0.65"/><circle class="cls-9" cx="28.35" cy="140.86" r="0.65"/><circle class="cls-9" cx="23.52" cy="147.01" r="0.65"/><circle class="cls-9" cx="28.35" cy="147.01" r="0.65"/><circle class="cls-9" cx="23.52" cy="149.35" r="0.65"/><circle class="cls-9" cx="28.35" cy="149.35" r="0.65"/><circle class="cls-9" cx="23.52" cy="157.55" r="0.65"/><circle class="cls-9" cx="28.35" cy="157.55" r="0.65"/><circle class="cls-9" cx="23.52" cy="165.46" r="0.65"/><circle class="cls-9" cx="28.35" cy="165.46" r="0.65"/><circle class="cls-9" cx="23.52" cy="172.78" r="0.65"/><circle class="cls-9" cx="28.35" cy="172.78" r="0.65"/><circle class="cls-9" cx="76.68" cy="39.96" r="0.65"/><circle class="cls-9" cx="81.51" cy="39.96" r="0.65"/><circle class="cls-9" cx="76.9" cy="50.07" r="0.65"/><circle class="cls-9" cx="81.73" cy="50.07" r="0.65"/><circle class="cls-9" cx="77.78" cy="59.07" r="0.65"/><circle class="cls-9" cx="82.61" cy="59.07" r="0.65"/><circle class="cls-9" cx="77.78" cy="61.05" r="0.65"/><circle class="cls-9" cx="82.61" cy="61.05" r="0.65"/><circle class="cls-9" cx="78" cy="66.76" r="0.65"/><circle class="cls-9" cx="82.83" cy="66.76" r="0.65"/><circle class="cls-9" cx="78" cy="74.67" r="0.65"/><circle class="cls-9" cx="82.83" cy="74.67" r="0.65"/><circle class="cls-9" cx="78" cy="78.4" r="0.65"/><circle class="cls-9" cx="82.83" cy="78.4" r="0.65"/><circle class="cls-9" cx="78" cy="86.75" r="0.65"/><circle class="cls-9" cx="82.83" cy="86.75" r="0.65"/><circle class="cls-9" cx="78" cy="96.42" r="0.65"/><circle class="cls-9" cx="82.83" cy="96.42" r="0.65"/><circle class="cls-9" cx="78" cy="105.64" r="0.65"/><circle class="cls-9" cx="82.83" cy="105.64" r="0.65"/><circle class="cls-9" cx="78" cy="114.87" r="0.65"/><circle class="cls-9" cx="82.83" cy="114.87" r="0.65"/><circle class="cls-9" cx="78" cy="123.21" r="0.65"/><circle class="cls-9" cx="82.83" cy="123.21" r="0.65"/><circle class="cls-9" cx="78" cy="130.68" r="0.65"/><circle class="cls-9" cx="82.83" cy="130.68" r="0.65"/><circle class="cls-9" cx="78" cy="140.13" r="0.65"/><circle class="cls-9" cx="82.83" cy="140.13" r="0.65"/><circle class="cls-9" cx="78" cy="148.03" r="0.65"/><circle class="cls-9" cx="82.83" cy="148.03" r="0.65"/><circle class="cls-9" cx="78" cy="149.79" r="0.65"/><circle class="cls-9" cx="82.83" cy="149.79" r="0.65"/><circle class="cls-9" cx="81.51" cy="157.7" r="0.65"/><circle class="cls-9" cx="78.22" cy="157.7" r="0.65"/><circle class="cls-9" cx="81.51" cy="166.05" r="0.65"/><circle class="cls-9" cx="78.22" cy="166.05" r="0.65"/><circle class="cls-9" cx="81.51" cy="172.63" r="0.65"/><circle class="cls-9" cx="78.22" cy="172.63" r="0.65"/><circle class="cls-9" cx="81.51" cy="180.1" r="0.65"/><circle class="cls-9" cx="78.22" cy="180.1" r="0.65"/><circle class="cls-9" cx="74.7" cy="180.1" r="0.65"/><circle class="cls-9" cx="81.51" cy="185.81" r="0.65"/><circle class="cls-9" cx="78.22" cy="185.81" r="0.65"/><circle class="cls-9" cx="74.7" cy="185.81" r="0.65"/><circle class="cls-9" cx="77.56" cy="202.29" r="0.65"/><circle class="cls-9" cx="77.56" cy="207.12" r="0.65"/><circle class="cls-9" cx="77.56" cy="211.95" r="0.65"/><circle class="cls-9" cx="77.56" cy="245.56" r="0.65"/><circle class="cls-9" cx="77.56" cy="250.39" r="0.65"/><circle class="cls-9" cx="77.56" cy="255.22" r="0.65"/><circle class="cls-9" cx="77.56" cy="260.06" r="0.65"/><circle class="cls-9" cx="74.48" cy="264.89" r="0.65"/><circle class="cls-9" cx="77.56" cy="264.89" r="0.65"/><circle class="cls-9" cx="32.53" cy="216.57" r="0.65"/><circle class="cls-9" cx="32.53" cy="221.4" r="0.65"/><circle class="cls-9" cx="32.53" cy="226.23" r="0.65"/><circle class="cls-9" cx="32.53" cy="231.06" r="0.65"/><circle class="cls-9" cx="32.53" cy="235.89" r="0.65"/><circle class="cls-9" cx="32.53" cy="240.73" r="0.65"/><circle class="cls-9" cx="32.53" cy="197.46" r="0.65"/><circle class="cls-9" cx="32.53" cy="202.29" r="0.65"/><circle class="cls-9" cx="32.53" cy="207.12" r="0.65"/><circle class="cls-9" cx="32.53" cy="211.95" r="0.65"/><circle class="cls-9" cx="32.53" cy="245.56" r="0.65"/><circle class="cls-9" cx="32.53" cy="250.39" r="0.65"/><circle class="cls-9" cx="32.53" cy="255.22" r="0.65"/><circle class="cls-9" cx="32.53" cy="260.06" r="0.65"/><circle class="cls-9" cx="35.6" cy="216.57" r="0.65"/><circle class="cls-9" cx="35.6" cy="221.4" r="0.65"/><circle class="cls-9" cx="35.6" cy="226.23" r="0.65"/><circle class="cls-9" cx="35.6" cy="231.06" r="0.65"/><circle class="cls-9" cx="35.6" cy="235.89" r="0.65"/><circle class="cls-9" cx="35.6" cy="240.73" r="0.65"/><circle class="cls-9" cx="35.6" cy="197.46" r="0.65"/><circle class="cls-9" cx="35.6" cy="202.29" r="0.65"/><circle class="cls-9" cx="35.6" cy="207.12" r="0.65"/><circle class="cls-9" cx="35.6" cy="211.95" r="0.65"/><circle class="cls-9" cx="35.6" cy="245.56" r="0.65"/><circle class="cls-9" cx="35.6" cy="250.39" r="0.65"/><circle class="cls-9" cx="35.6" cy="255.22" r="0.65"/><circle class="cls-9" cx="35.6" cy="260.06" r="0.65"/><circle class="cls-9" cx="32.53" cy="264.89" r="0.65"/><circle class="cls-9" cx="35.6" cy="264.89" r="0.65"/><circle class="cls-9" cx="27.26" cy="339.24" r="0.65"/><circle class="cls-9" cx="27.26" cy="347.48" r="0.65"/><circle class="cls-9" cx="27.26" cy="355.72" r="0.65"/><circle class="cls-9" cx="27.26" cy="363.96" r="0.65"/><circle class="cls-9" cx="82.05" cy="331" r="0.65"/><circle class="cls-9" cx="82.05" cy="339.24" r="0.65"/><circle class="cls-9" cx="82.05" cy="347.48" r="0.65"/><circle class="cls-9" cx="82.05" cy="355.72" r="0.65"/><circle class="cls-9" cx="82.05" cy="363.96" r="0.65"/><circle class="cls-9" cx="174.51" cy="394.4" r="0.65"/><circle class="cls-9" cx="174.51" cy="406.16" r="0.65"/><circle class="cls-9" cx="174.51" cy="417.92" r="0.65"/><circle class="cls-9" cx="137.62" cy="393.24" r="0.65"/><circle class="cls-9" cx="137.62" cy="405" r="0.65"/><circle class="cls-9" cx="137.62" cy="416.76" r="0.65"/><circle class="cls-9" cx="82.05" cy="375.08" r="0.65"/><circle class="cls-9" cx="74.84" cy="375.08" r="0.65"/><circle class="cls-9" cx="67.63" cy="375.08" r="0.65"/><circle class="cls-9" cx="60.42" cy="375.08" r="0.65"/><circle class="cls-9" cx="49.71" cy="375.08" r="0.65"/><circle class="cls-9" cx="42.5" cy="375.08" r="0.65"/><circle class="cls-9" cx="35.29" cy="375.08" r="0.65"/><circle class="cls-9" cx="28.08" cy="375.08" r="0.65"/><circle class="cls-8" cx="119.88" cy="360.15" r="1.12"/><circle class="cls-8" cx="152.84" cy="355.41" r="1.12"/><circle class="cls-8" cx="160.31" cy="355.41" r="1.12"/><circle class="cls-10" cx="110.49" cy="365.81" r="0.94"/><circle class="cls-10" cx="110.49" cy="377.35" r="0.94"/><circle class="cls-10" cx="122.44" cy="365.81" r="0.94"/><circle class="cls-10" cx="149.22" cy="362.31" r="0.94"/><circle class="cls-10" cx="48.18" cy="312.89" r="0.94"/><circle class="cls-10" cx="107.71" cy="266.43" r="0.94"/><circle class="cls-10" cx="119.64" cy="266.43" r="0.94"/><circle class="cls-10" cx="107.71" cy="270.63" r="0.94"/><circle class="cls-10" cx="119.64" cy="270.63" r="0.94"/><circle class="cls-10" cx="107.71" cy="217.23" r="0.94"/><circle class="cls-10" cx="119.64" cy="217.23" r="0.94"/><circle class="cls-10" cx="107.71" cy="196.43" r="0.94"/><circle class="cls-10" cx="119.64" cy="196.43" r="0.94"/><circle class="cls-10" cx="107.71" cy="221.42" r="0.94"/><circle class="cls-10" cx="119.64" cy="221.42" r="0.94"/><circle class="cls-10" cx="60.7" cy="312.89" r="0.94"/><circle class="cls-10" cx="49.06" cy="216.58" r="0.94"/><circle class="cls-10" cx="42.91" cy="169.14" r="0.94"/><circle class="cls-10" cx="64.29" cy="169.14" r="0.94"/><circle class="cls-10" cx="42.91" cy="149.81" r="0.94"/><circle class="cls-10" cx="64.29" cy="149.81" r="0.94"/><circle class="cls-10" cx="97.67" cy="122.28" r="0.94"/><circle class="cls-10" cx="107.04" cy="122.28" r="0.94"/><circle class="cls-10" cx="42.91" cy="128.43" r="0.94"/><circle class="cls-10" cx="47.3" cy="119.64" r="0.94"/><circle class="cls-10" cx="59.31" cy="119.64" r="0.94"/><circle class="cls-10" cx="47.3" cy="123.74" r="0.94"/><circle class="cls-10" cx="59.31" cy="123.74" r="0.94"/><circle class="cls-10" cx="64.29" cy="128.43" r="0.94"/><circle class="cls-10" cx="40.27" cy="27.97" r="0.94"/><circle class="cls-10" cx="63.41" cy="27.97" r="0.94"/><circle class="cls-10" cx="61.58" cy="216.58" r="0.94"/><circle class="cls-10" cx="48.18" cy="323.22" r="0.94"/><circle class="cls-10" cx="60.7" cy="323.22" r="0.94"/><circle class="cls-10" cx="162.92" cy="362.31" r="0.94"/><circle class="cls-10" cx="149.63" cy="375.91" r="0.94"/><circle class="cls-10" cx="106.36" cy="556.46" r="0.94"/><circle class="cls-10" cx="116.46" cy="521.32" r="0.94"/><circle class="cls-10" cx="125.47" cy="521.32" r="0.94"/><circle class="cls-10" cx="133.16" cy="521.32" r="0.94"/><circle class="cls-10" cx="138.65" cy="521.32" r="0.94"/><circle class="cls-10" cx="154.9" cy="523.52" r="0.94"/><circle class="cls-10" cx="164.13" cy="523.52" r="0.94"/><circle class="cls-10" cx="114.05" cy="556.46" r="0.94"/><circle class="cls-10" cx="124.15" cy="556.46" r="0.94"/><circle class="cls-10" cx="106.36" cy="571.18" r="0.94"/><circle class="cls-10" cx="114.05" cy="571.18" r="0.94"/><circle class="cls-10" cx="124.15" cy="571.18" r="0.94"/><circle class="cls-10" cx="163.33" cy="375.91" r="0.94"/><circle class="cls-10" cx="149.63" cy="381.26" r="0.94"/><circle class="cls-10" cx="163.33" cy="381.26" r="0.94"/><circle class="cls-10" cx="122.44" cy="377.35" r="0.94"/><circle class="cls-8" cx="105.46" cy="401.35" r="1.12"/><circle class="cls-8" cx="126.47" cy="401.35" r="1.12"/><circle class="cls-10" cx="110.9" cy="421.84" r="0.94"/><circle class="cls-10" cx="110.9" cy="417.31" r="0.94"/><circle class="cls-10" cx="162.4" cy="422.87" r="0.94"/><circle class="cls-10" cx="150.45" cy="422.67" r="0.94"/><circle class="cls-10" cx="162.4" cy="433.79" r="0.94"/><circle class="cls-10" cx="150.45" cy="433.58" r="0.94"/><circle class="cls-10" cx="122.65" cy="421.9" r="0.94"/><circle class="cls-10" cx="122.44" cy="417.31" r="0.94"/><circle class="cls-10" cx="184" cy="451.82" r="0.94"/><circle class="cls-10" cx="184" cy="447.29" r="0.94"/><circle class="cls-10" cx="195.74" cy="451.87" r="0.94"/><circle class="cls-10" cx="195.54" cy="447.29" r="0.94"/><circle class="cls-10" cx="184" cy="435.76" r="0.94"/><circle class="cls-10" cx="195.54" cy="435.76" r="0.94"/><rect class="cls-10" x="209.7" y="482.88" width="5.54" height="1.62"/><rect class="cls-10" x="209.7" y="493.03" width="5.54" height="1.61"/><rect class="cls-11" x="211.2" y="481.87" width="2.68" height="13.78"/><rect class="cls-10" x="194.83" y="514.82" width="1.61" height="5.53"/><rect class="cls-10" x="184.68" y="514.82" width="1.61" height="5.53"/><rect class="cls-11" x="183.67" y="516.32" width="13.78" height="2.68"/><rect class="cls-10" x="184.68" y="544.34" width="1.61" height="5.54"/><rect class="cls-10" x="194.83" y="544.34" width="1.61" height="5.54"/><rect class="cls-10" x="198.29" y="544.34" width="1.61" height="5.54"/><rect class="cls-10" x="181.45" y="544.34" width="1.61" height="5.54"/><rect class="cls-12" x="180.54" y="545.66" width="20.03" height="2.74"/></g><g id="north_arrow" data-name="north arrow"><line class="cls-13" x1="193.77" y1="105" x2="184.11" y2="91.46"/><text class="cls-14" transform="translate(197.7 138.31) rotate(-57.06)">N</text><text class="cls-14" transform="translate(211.83 116.49) rotate(-57.06)"> </text><line class="cls-13" x1="184" y1="91.35" x2="186.81" y2="101.06"/></g></svg>
